<mxfile host="drawio-plugin" modified="2021-05-09T16:39:08.735Z" agent="5.0 (Windows NT 6.2; Win64; x64) AppleWebKit/537.36 (KHTML, like Gecko) Chrome/87.0.4280.141 Safari/537.36" version="13.7.9" etag="wRJFs2okSx58DY2mYUsB" type="embed"><diagram id="W74ol8bPVEIwbOGmoSiT" name="Page-1"><mxGraphModel dx="1900" dy="1483" grid="1" gridSize="10" guides="1" tooltips="1" connect="1" arrows="1" fold="1" page="1" pageScale="1" pageWidth="850" pageHeight="1100" background="#ffffff" math="0" shadow="0"><root><mxCell id="0"/><mxCell id="1" parent="0"/><mxCell id="2" value="TreeType" style="swimlane;fontStyle=1;align=center;verticalAlign=top;childLayout=stackLayout;horizontal=1;startSize=26;horizontalStack=0;resizeParent=1;resizeParentMax=0;resizeLast=0;collapsible=1;marginBottom=0;fontColor=#000000;strokeColor=#0000CC;strokeWidth=2;fillColor=#FFFFFF;swimlaneFillColor=none;" vertex="1" parent="1"><mxGeometry x="270" y="-40" width="160" height="138" as="geometry"/></mxCell><mxCell id="3" value="- __name: str" style="text;align=left;verticalAlign=top;spacingLeft=4;spacingRight=4;overflow=hidden;rotatable=0;points=[[0,0.5],[1,0.5]];portConstraint=eastwest;fontColor=#000000;strokeColor=#0000CC;strokeWidth=2;fillColor=#FFFFFF;" vertex="1" parent="2"><mxGeometry y="26" width="160" height="26" as="geometry"/></mxCell><mxCell id="4" value="- __color: str" style="text;align=left;verticalAlign=top;spacingLeft=4;spacingRight=4;overflow=hidden;rotatable=0;points=[[0,0.5],[1,0.5]];portConstraint=eastwest;fontColor=#000000;strokeColor=#0000CC;strokeWidth=2;fillColor=#FFFFFF;" vertex="1" parent="2"><mxGeometry y="52" width="160" height="26" as="geometry"/></mxCell><mxCell id="5" value="- __texture: str" style="text;align=left;verticalAlign=top;spacingLeft=4;spacingRight=4;overflow=hidden;rotatable=0;points=[[0,0.5],[1,0.5]];portConstraint=eastwest;fontColor=#000000;strokeColor=#0000CC;strokeWidth=2;fillColor=#FFFFFF;" vertex="1" parent="2"><mxGeometry y="78" width="160" height="26" as="geometry"/></mxCell><mxCell id="7" value="" style="line;strokeWidth=2;align=left;verticalAlign=middle;spacingTop=-1;spacingLeft=3;spacingRight=3;rotatable=0;labelPosition=right;points=[];portConstraint=eastwest;fontColor=#000000;strokeColor=#0000CC;fillColor=#FFFFFF;" vertex="1" parent="2"><mxGeometry y="104" width="160" height="8" as="geometry"/></mxCell><mxCell id="8" value="+ draw(canvas, x, y)" style="text;align=left;verticalAlign=top;spacingLeft=4;spacingRight=4;overflow=hidden;rotatable=0;points=[[0,0.5],[1,0.5]];portConstraint=eastwest;fontColor=#000000;strokeColor=#0000CC;strokeWidth=2;fillColor=#FFFFFF;" vertex="1" parent="2"><mxGeometry y="112" width="160" height="26" as="geometry"/></mxCell><mxCell id="15" value="return" style="html=1;verticalAlign=bottom;endArrow=open;dashed=1;endSize=8;strokeWidth=2;strokeColor=#000099;exitX=1;exitY=0.5;exitDx=0;exitDy=0;entryX=-0.019;entryY=0.094;entryDx=0;entryDy=0;fontSize=17;fontColor=#000000;labelBackgroundColor=#FFFFFF;entryPerimeter=0;" edge="1" parent="1" source="14" target="2"><mxGeometry x="-0.2727" y="13" relative="1" as="geometry"><mxPoint x="340" y="371" as="sourcePoint"/><mxPoint x="340" y="207" as="targetPoint"/><Array as="points"><mxPoint x="230" y="193"/><mxPoint x="230" y="-30"/></Array><mxPoint x="23" y="-9" as="offset"/></mxGeometry></mxCell><mxCell id="16" value="Tree" style="swimlane;fontStyle=1;align=center;verticalAlign=top;childLayout=stackLayout;horizontal=1;startSize=26;horizontalStack=0;resizeParent=1;resizeParentMax=0;resizeLast=0;collapsible=1;marginBottom=0;fontColor=#000000;strokeColor=#0000CC;strokeWidth=2;fillColor=#FFFFFF;swimlaneFillColor=none;" vertex="1" parent="1"><mxGeometry x="500" y="-40" width="160" height="138" as="geometry"/></mxCell><mxCell id="17" value="- __x: int" style="text;align=left;verticalAlign=top;spacingLeft=4;spacingRight=4;overflow=hidden;rotatable=0;points=[[0,0.5],[1,0.5]];portConstraint=eastwest;fontColor=#000000;strokeColor=#0000CC;strokeWidth=2;fillColor=#FFFFFF;" vertex="1" parent="16"><mxGeometry y="26" width="160" height="26" as="geometry"/></mxCell><mxCell id="18" value="- __y: int" style="text;align=left;verticalAlign=top;spacingLeft=4;spacingRight=4;overflow=hidden;rotatable=0;points=[[0,0.5],[1,0.5]];portConstraint=eastwest;fontColor=#000000;strokeColor=#0000CC;strokeWidth=2;fillColor=#FFFFFF;" vertex="1" parent="16"><mxGeometry y="52" width="160" height="26" as="geometry"/></mxCell><mxCell id="19" value="- __tree_type: TreeType" style="text;align=left;verticalAlign=top;spacingLeft=4;spacingRight=4;overflow=hidden;rotatable=0;points=[[0,0.5],[1,0.5]];portConstraint=eastwest;fontColor=#000000;strokeColor=#0000CC;strokeWidth=2;fillColor=#FFFFFF;" vertex="1" parent="16"><mxGeometry y="78" width="160" height="26" as="geometry"/></mxCell><mxCell id="20" value="" style="line;strokeWidth=2;align=left;verticalAlign=middle;spacingTop=-1;spacingLeft=3;spacingRight=3;rotatable=0;labelPosition=right;points=[];portConstraint=eastwest;fontColor=#000000;strokeColor=#0000CC;fillColor=#FFFFFF;" vertex="1" parent="16"><mxGeometry y="104" width="160" height="8" as="geometry"/></mxCell><mxCell id="21" value="+ draw(canvas)" style="text;align=left;verticalAlign=top;spacingLeft=4;spacingRight=4;overflow=hidden;rotatable=0;points=[[0,0.5],[1,0.5]];portConstraint=eastwest;fontColor=#000000;strokeColor=#0000CC;strokeWidth=2;fillColor=#FFFFFF;" vertex="1" parent="16"><mxGeometry y="112" width="160" height="26" as="geometry"/></mxCell><mxCell id="22" value="" style="endArrow=block;endFill=1;html=1;edgeStyle=orthogonalEdgeStyle;align=left;verticalAlign=top;strokeWidth=2;strokeColor=#0000CC;exitX=0;exitY=0.5;exitDx=0;exitDy=0;entryX=1.013;entryY=0.094;entryDx=0;entryDy=0;entryPerimeter=0;fontSize=11;" edge="1" parent="1" source="19" target="2"><mxGeometry x="0.0417" y="-15" relative="1" as="geometry"><mxPoint x="340" y="70" as="sourcePoint"/><mxPoint x="470" y="160" as="targetPoint"/><mxPoint as="offset"/></mxGeometry></mxCell><mxCell id="23" value="1" style="edgeLabel;resizable=0;html=1;align=left;verticalAlign=bottom;fontSize=17;fontColor=#000000;labelBackgroundColor=none;" connectable="0" vertex="1" parent="22"><mxGeometry x="-1" relative="1" as="geometry"><mxPoint x="-20" as="offset"/></mxGeometry></mxCell><mxCell id="24" value="1" style="text;html=1;align=center;verticalAlign=middle;resizable=0;points=[];autosize=1;fontSize=17;fontColor=#000000;" vertex="1" parent="1"><mxGeometry x="440" y="-60" width="20" height="30" as="geometry"/></mxCell><mxCell id="25" value="Forest" style="swimlane;fontStyle=1;align=center;verticalAlign=top;childLayout=stackLayout;horizontal=1;startSize=26;horizontalStack=0;resizeParent=1;resizeParentMax=0;resizeLast=0;collapsible=1;marginBottom=0;fontColor=#000000;strokeColor=#0000CC;strokeWidth=2;fillColor=#FFFFFF;swimlaneFillColor=none;" vertex="1" parent="1"><mxGeometry x="470" y="180" width="220" height="112" as="geometry"/></mxCell><mxCell id="26" value="- __trees: list[Tree]" style="text;align=left;verticalAlign=top;spacingLeft=4;spacingRight=4;overflow=hidden;rotatable=0;points=[[0,0.5],[1,0.5]];portConstraint=eastwest;fontColor=#000000;strokeColor=#0000CC;strokeWidth=2;fillColor=#FFFFFF;" vertex="1" parent="25"><mxGeometry y="26" width="220" height="26" as="geometry"/></mxCell><mxCell id="27" value="" style="line;strokeWidth=2;align=left;verticalAlign=middle;spacingTop=-1;spacingLeft=3;spacingRight=3;rotatable=0;labelPosition=right;points=[];portConstraint=eastwest;fontColor=#000000;strokeColor=#0000CC;fillColor=#FFFFFF;" vertex="1" parent="25"><mxGeometry y="52" width="220" height="8" as="geometry"/></mxCell><mxCell id="28" value="+ plant_tree(x, y, name, color, texture)" style="text;align=left;verticalAlign=top;spacingLeft=4;spacingRight=4;overflow=hidden;rotatable=0;points=[[0,0.5],[1,0.5]];portConstraint=eastwest;fontColor=#000000;strokeColor=#0000CC;strokeWidth=2;fillColor=#FFFFFF;" vertex="1" parent="25"><mxGeometry y="60" width="220" height="26" as="geometry"/></mxCell><mxCell id="29" value="+ draw(canvas)" style="text;align=left;verticalAlign=top;spacingLeft=4;spacingRight=4;overflow=hidden;rotatable=0;points=[[0,0.5],[1,0.5]];portConstraint=eastwest;fontColor=#000000;strokeColor=#0000CC;strokeWidth=2;fillColor=#FFFFFF;" vertex="1" parent="25"><mxGeometry y="86" width="220" height="26" as="geometry"/></mxCell><mxCell id="9" value="TreeFactory" style="swimlane;fontStyle=1;align=center;verticalAlign=top;childLayout=stackLayout;horizontal=1;startSize=26;horizontalStack=0;resizeParent=1;resizeParentMax=0;resizeLast=0;collapsible=1;marginBottom=0;fontColor=#000000;strokeColor=#0000CC;strokeWidth=2;fillColor=#FFFFFF;swimlaneFillColor=none;" vertex="1" parent="1"><mxGeometry x="-10" y="120" width="180" height="86" as="geometry"/></mxCell><mxCell id="10" value="- __tree_types: list[TreeType]" style="text;align=left;verticalAlign=top;spacingLeft=4;spacingRight=4;overflow=hidden;rotatable=0;points=[[0,0.5],[1,0.5]];portConstraint=eastwest;fontColor=#000000;strokeColor=#0000CC;strokeWidth=2;fillColor=#FFFFFF;" vertex="1" parent="9"><mxGeometry y="26" width="180" height="26" as="geometry"/></mxCell><mxCell id="13" value="" style="line;strokeWidth=2;align=left;verticalAlign=middle;spacingTop=-1;spacingLeft=3;spacingRight=3;rotatable=0;labelPosition=right;points=[];portConstraint=eastwest;fontColor=#000000;strokeColor=#0000CC;fillColor=#FFFFFF;" vertex="1" parent="9"><mxGeometry y="52" width="180" height="8" as="geometry"/></mxCell><mxCell id="14" value="+ get_tree_type(): TreeType" style="text;align=left;verticalAlign=top;spacingLeft=4;spacingRight=4;overflow=hidden;rotatable=0;points=[[0,0.5],[1,0.5]];portConstraint=eastwest;fontColor=#000000;strokeColor=#0000CC;strokeWidth=2;fillColor=#FFFFFF;" vertex="1" parent="9"><mxGeometry y="60" width="180" height="26" as="geometry"/></mxCell><mxCell id="31" value="&lt;font style=&quot;font-size: 17px&quot;&gt;1&lt;/font&gt;" style="text;html=1;align=center;verticalAlign=middle;resizable=0;points=[];autosize=1;fontSize=11;fontColor=#000000;" vertex="1" parent="1"><mxGeometry x="80" y="78" width="20" height="20" as="geometry"/></mxCell><mxCell id="32" value="&lt;font style=&quot;font-size: 17px&quot;&gt;0..*&lt;/font&gt;" style="text;html=1;align=center;verticalAlign=middle;resizable=0;points=[];autosize=1;fontSize=11;fontColor=#000000;" vertex="1" parent="1"><mxGeometry x="230" y="10" width="40" height="20" as="geometry"/></mxCell><mxCell id="33" value="" style="endArrow=open;html=1;endSize=12;startArrow=diamondThin;startSize=14;startFill=0;edgeStyle=orthogonalEdgeStyle;align=left;verticalAlign=bottom;strokeColor=#0000CC;strokeWidth=2;fontSize=11;fontColor=#000000;exitX=0.5;exitY=0;exitDx=0;exitDy=0;entryX=0;entryY=0.5;entryDx=0;entryDy=0;" edge="1" parent="1" source="9" target="3"><mxGeometry x="-0.9357" y="40" relative="1" as="geometry"><mxPoint x="340" y="60" as="sourcePoint"/><mxPoint x="500" y="60" as="targetPoint"/><mxPoint as="offset"/></mxGeometry></mxCell><mxCell id="34" value="" style="endArrow=open;html=1;endSize=12;startArrow=diamondThin;startSize=14;startFill=0;edgeStyle=orthogonalEdgeStyle;align=left;verticalAlign=bottom;strokeColor=#0000CC;strokeWidth=2;fontSize=11;fontColor=#000000;exitX=1;exitY=0.5;exitDx=0;exitDy=0;entryX=1;entryY=0.109;entryDx=0;entryDy=0;entryPerimeter=0;" edge="1" parent="1" source="26" target="16"><mxGeometry x="-0.9357" y="40" relative="1" as="geometry"><mxPoint x="90" y="130" as="sourcePoint"/><mxPoint x="280" y="9" as="targetPoint"/><mxPoint as="offset"/><Array as="points"><mxPoint x="720" y="219"/><mxPoint x="720" y="-25"/></Array></mxGeometry></mxCell><mxCell id="35" value="1" style="edgeLabel;resizable=0;html=1;align=left;verticalAlign=bottom;fontSize=17;fontColor=#000000;labelBackgroundColor=none;" connectable="0" vertex="1" parent="1"><mxGeometry x="690" y="210" as="geometry"/></mxCell><mxCell id="36" value="&lt;font style=&quot;font-size: 17px&quot;&gt;0..*&lt;/font&gt;" style="text;html=1;align=center;verticalAlign=middle;resizable=0;points=[];autosize=1;fontSize=11;fontColor=#000000;" vertex="1" parent="1"><mxGeometry x="670" y="-55" width="40" height="20" as="geometry"/></mxCell></root></mxGraphModel></diagram></mxfile>